<svg width="150" height="30" viewBox="0 0 150 30" fill="none" xmlns="http://www.w3.org/2000/svg">
<path fill-rule="evenodd" clip-rule="evenodd" d="M15 0C6.71573 0 0 6.71573 0 15C0 23.2843 6.71573 30 15 30H135C143.284 30 150 23.2843 150 15C150 6.71573 143.284 0 135 0H15ZM21.3548 17.5277C21.998 17.982 22.8234 18.2092 23.831 18.2092C24.6496 18.2092 25.3873 18.0585 26.044 17.7571C26.7007 17.4557 27.254 17.0419 27.7038 16.5156C28.1581 15.9893 28.482 15.3911 28.6754 14.7209H26.7053C26.5613 15.0942 26.3589 15.4136 26.098 15.679C25.8416 15.9444 25.5447 16.149 25.2074 16.293C24.8745 16.4324 24.5147 16.5021 24.1278 16.5021C23.5611 16.5021 23.091 16.3514 22.7177 16.0501C22.3443 15.7487 22.088 15.3236 21.9485 14.7749C21.8091 14.2261 21.8023 13.5739 21.9283 12.8182C22.0452 12.0805 22.2656 11.4418 22.5895 10.902C22.9134 10.3577 23.3114 9.93939 23.7837 9.64702C24.256 9.35014 24.7733 9.20171 25.3356 9.20171C25.9743 9.20171 26.4579 9.37713 26.7862 9.72798C27.1146 10.0788 27.2945 10.4972 27.326 10.983H29.2894C29.3299 10.2858 29.2039 9.67625 28.9116 9.15447C28.6192 8.63269 28.1896 8.22786 27.6229 7.93999C27.0561 7.64761 26.3792 7.50142 25.592 7.50142C24.6159 7.50142 23.7275 7.72858 22.9268 8.18288C22.1307 8.63719 21.4672 9.26917 20.9364 10.0788C20.4102 10.884 20.0616 11.8129 19.8906 12.8654C19.7197 13.9045 19.7602 14.8266 20.0121 15.6317C20.264 16.4369 20.7115 17.0689 21.3548 17.5277ZM41.1695 7.63637L36.5072 15.5035L34.5438 7.63637H33.977H32.8232H32.0068L30.2796 18H32.2497L33.5082 10.4494L35.3467 18H36.8445L41.2405 10.4892L39.9887 18H41.9521L43.6794 7.63637H42.9102H41.716H41.1695ZM45.9212 17.8651C46.4115 18.108 46.985 18.2294 47.6417 18.2294C48.213 18.2294 48.7167 18.1462 49.1531 17.9798C49.5894 17.8133 49.9582 17.6042 50.2596 17.3523C50.5655 17.1004 50.8039 16.844 50.9748 16.5831H51.0558L50.8129 18H52.783L53.9233 11.1179C54.0492 10.3622 54.0222 9.74822 53.8423 9.27592C53.6624 8.79912 53.388 8.43253 53.0192 8.17613C52.6548 7.91974 52.25 7.74432 51.8047 7.64986C51.3594 7.5509 50.9298 7.50142 50.516 7.50142C49.8907 7.50142 49.279 7.59138 48.6808 7.7713C48.0825 7.94673 47.5315 8.23012 47.0277 8.62144C46.5284 9.00829 46.1168 9.51657 45.793 10.1463L47.6012 10.5781C47.8171 10.2093 48.1522 9.87642 48.6065 9.57954C49.0653 9.28267 49.6321 9.13423 50.3068 9.13423C50.9545 9.13423 51.4089 9.29842 51.6697 9.62678C51.9351 9.95064 52.0206 10.4049 51.9261 10.9897V11.0369C51.8857 11.2798 51.7664 11.4553 51.5685 11.5632C51.3706 11.6667 51.0737 11.7431 50.6779 11.7926C50.2866 11.8421 49.776 11.9028 49.1463 11.9748C48.647 12.0288 48.1522 12.112 47.6619 12.2244C47.1716 12.3369 46.7173 12.5056 46.299 12.7305C45.8807 12.9509 45.5253 13.25 45.233 13.6278C44.9451 14.0057 44.7517 14.487 44.6527 15.0717C44.5403 15.7509 44.601 16.3245 44.8349 16.7923C45.0688 17.2601 45.4309 17.6177 45.9212 17.8651ZM49.821 16.2795C49.3892 16.4999 48.8922 16.6101 48.3299 16.6101C47.7586 16.6101 47.3111 16.4841 46.9872 16.2322C46.6678 15.9759 46.5486 15.598 46.6296 15.0987C46.6881 14.7389 46.832 14.451 47.0614 14.2351C47.2908 14.0147 47.5765 13.846 47.9183 13.729C48.2647 13.6121 48.6358 13.5289 49.0316 13.4794C49.198 13.4524 49.4072 13.4232 49.6591 13.3917C49.9155 13.3602 50.1764 13.322 50.4418 13.277C50.7072 13.232 50.9456 13.1803 51.157 13.1218C51.3729 13.0633 51.5236 12.9981 51.609 12.9261L51.3864 14.2621C51.3189 14.6714 51.1502 15.056 50.8803 15.4158C50.6104 15.7712 50.2573 16.0591 49.821 16.2795ZM61.8192 18H63.7893L65.4964 7.63637H63.5262L62.6755 12.801C62.5078 12.8442 62.3415 12.8837 62.1768 12.9194C61.6415 13.0318 61.0725 13.0881 60.4697 13.0881C60.0109 13.0881 59.6263 13.0161 59.316 12.8722C59.0056 12.7282 58.7852 12.5033 58.6547 12.1974C58.5288 11.8916 58.5041 11.4935 58.5805 11.0032L59.1405 7.61612H57.1771L56.6171 11.0032C56.4057 12.2987 56.6261 13.2612 57.2783 13.891C57.9305 14.5162 58.8976 14.8288 60.1796 14.8288C60.5979 14.8288 61.0005 14.8018 61.3873 14.7479C61.7325 14.7003 62.0654 14.6369 62.3861 14.5578L61.8192 18ZM73.661 13.6953H69.1674L68.4499 18H66.4798L68.207 7.63637H70.1772L69.4586 11.9478H73.9522L74.6708 7.63637H76.641L74.9137 18H72.9435L73.661 13.6953ZM78.8743 17.8651C79.3646 18.108 79.9381 18.2294 80.5948 18.2294C81.1661 18.2294 81.6699 18.1462 82.1062 17.9798C82.5425 17.8133 82.9113 17.6042 83.2127 17.3523C83.5186 17.1004 83.757 16.844 83.9279 16.5831H84.0089L83.766 18H85.7361L86.8764 11.1179C87.0024 10.3622 86.9754 9.74822 86.7955 9.27592C86.6155 8.79912 86.3411 8.43253 85.9723 8.17613C85.608 7.91974 85.2031 7.74432 84.7578 7.64986C84.3125 7.5509 83.8829 7.50142 83.4691 7.50142C82.8439 7.50142 82.2321 7.59138 81.6339 7.7713C81.0356 7.94673 80.4846 8.23012 79.9808 8.62144C79.4815 9.00829 79.07 9.51657 78.7461 10.1463L80.5543 10.5781C80.7702 10.2093 81.1053 9.87642 81.5597 9.57954C82.0185 9.28267 82.5852 9.13423 83.2599 9.13423C83.9077 9.13423 84.362 9.29842 84.6229 9.62678C84.8883 9.95064 84.9737 10.4049 84.8793 10.9897V11.0369C84.8388 11.2798 84.7196 11.4553 84.5217 11.5632C84.3237 11.6667 84.0269 11.7431 83.631 11.7926C83.2397 11.8421 82.7292 11.9028 82.0994 11.9748C81.6001 12.0288 81.1053 12.112 80.6151 12.2244C80.1248 12.3369 79.6705 12.5056 79.2521 12.7305C78.8338 12.9509 78.4785 13.25 78.1861 13.6278C77.8982 14.0057 77.7048 14.487 77.6058 15.0717C77.4934 15.7509 77.5541 16.3245 77.788 16.7923C78.0219 17.2601 78.384 17.6177 78.8743 17.8651ZM82.7742 16.2795C82.3423 16.4999 81.8453 16.6101 81.283 16.6101C80.7118 16.6101 80.2642 16.4841 79.9403 16.2322C79.621 15.9759 79.5018 15.598 79.5827 15.0987C79.6412 14.7389 79.7852 14.451 80.0146 14.2351C80.244 14.0147 80.5296 13.846 80.8714 13.729C81.2178 13.6121 81.5889 13.5289 81.9847 13.4794C82.1512 13.4524 82.3603 13.4232 82.6122 13.3917C82.8686 13.3602 83.1295 13.322 83.3949 13.277C83.6603 13.232 83.8987 13.1803 84.1101 13.1218C84.326 13.0633 84.4767 12.9981 84.5621 12.9261L84.3395 14.2621C84.272 14.6714 84.1033 15.056 83.8335 15.4158C83.5636 15.7712 83.2105 16.0591 82.7742 16.2795ZM95.3677 17.5547C96.0334 17.991 96.8746 18.2092 97.8912 18.2092C98.6513 18.2092 99.344 18.0945 99.9693 17.8651C100.599 17.6312 101.146 17.305 101.609 16.8867C102.072 16.4639 102.427 15.9714 102.675 15.4091L100.826 15.065C100.651 15.3933 100.433 15.6677 100.172 15.8881C99.9108 16.104 99.6117 16.2682 99.2743 16.3807C98.9415 16.4886 98.5794 16.5426 98.188 16.5426C97.5808 16.5426 97.0748 16.4392 96.6699 16.2322C96.2651 16.0253 95.9817 15.6925 95.8198 15.2337C95.6633 14.7776 95.6423 14.1748 95.757 13.4254H103.14L103.255 12.7102C103.408 11.7701 103.413 10.9717 103.269 10.315C103.129 9.65376 102.877 9.11624 102.513 8.70241C102.149 8.28859 101.706 7.98497 101.184 7.79155C100.666 7.59813 100.115 7.50142 99.5307 7.50142C98.5681 7.50142 97.6887 7.72858 96.8926 8.18288C96.1009 8.63719 95.4397 9.26917 94.9089 10.0788C94.3781 10.8885 94.025 11.8241 93.8496 12.8857C93.6697 13.9607 93.7124 14.8986 93.9778 15.6992C94.2432 16.4954 94.7065 17.1139 95.3677 17.5547ZM96.0177 11.9141C96.1093 11.4911 96.2975 11.0796 96.5822 10.6793C96.8971 10.2385 97.2884 9.87642 97.7562 9.59304C98.224 9.30966 98.7278 9.16797 99.2676 9.16797C99.7939 9.16797 100.23 9.28717 100.577 9.52557C100.927 9.76397 101.175 10.0901 101.319 10.5039C101.463 10.9132 101.487 11.3833 101.393 11.9141H96.0177ZM106.502 17.5277C107.145 17.982 107.971 18.2092 108.978 18.2092C109.797 18.2092 110.535 18.0585 111.191 17.7571C111.848 17.4557 112.401 17.0419 112.851 16.5156C113.306 15.9893 113.629 15.3911 113.823 14.7209H111.853C111.709 15.0942 111.506 15.4136 111.245 15.679C110.989 15.9444 110.692 16.149 110.355 16.293C110.022 16.4324 109.662 16.5021 109.275 16.5021C108.709 16.5021 108.238 16.3514 107.865 16.0501C107.492 15.7487 107.235 15.3236 107.096 14.7749C106.957 14.2261 106.95 13.5739 107.076 12.8182C107.193 12.0805 107.413 11.4418 107.737 10.902C108.061 10.3577 108.459 9.93939 108.931 9.64702C109.404 9.35014 109.921 9.20171 110.483 9.20171C111.122 9.20171 111.605 9.37713 111.934 9.72798C112.262 10.0788 112.442 10.4972 112.473 10.983H114.437C114.477 10.2858 114.351 9.67625 114.059 9.15447C113.767 8.63269 113.337 8.22786 112.77 7.93999C112.204 7.64761 111.527 7.50142 110.739 7.50142C109.763 7.50142 108.875 7.72858 108.074 8.18288C107.278 8.63719 106.615 9.26917 106.084 10.0788C105.558 10.884 105.209 11.8129 105.038 12.8654C104.867 13.9045 104.908 14.8266 105.16 15.6317C105.411 16.4369 105.859 17.0689 106.502 17.5277ZM124.151 16.3469L125.602 7.63637H123.632L122.194 16.2592H117.681L119.124 7.63637H117.148L115.42 18H123.402L122.862 21.3398H124.853L125.662 16.3469H124.151ZM131.374 7.63637H129.357L127.629 18H129.647L131.374 7.63637ZM129.896 5.6662C130.139 5.9001 130.436 6.01704 130.787 6.01704C131.138 6.01704 131.441 5.9001 131.698 5.6662C131.959 5.4278 132.098 5.14441 132.116 4.81606C132.13 4.48318 132.017 4.19981 131.779 3.96591C131.54 3.72751 131.246 3.60831 130.895 3.60831C130.549 3.60831 130.245 3.72751 129.984 3.96591C129.723 4.19981 129.584 4.48318 129.566 4.81606C129.548 5.14441 129.658 5.4278 129.896 5.6662Z" fill="#F46C6C"/>
</svg>
